<svg xmlns="http://www.w3.org/2000/svg" viewBox="0 0 32 32"><symbol xmlns="http://www.w3.org/2000/svg" id="KlS0soD7ZK-CQIrAsstDH" viewBox="0 0 32 32"><path fill="#b0882c" style="fill:var(--color23, #388ce7)" d="M24.599 26.333c-.253 0-.494-.093-.694-.28l-1.347-1.28c-.4-.387-.413-1.013-.027-1.413s1.013-.413 1.413-.027l.654.627 2.093-2.027c.4-.387 1.027-.373 1.413.027s.373 1.027-.026 1.413l-2.787 2.693c-.2.174-.453.267-.693.267z"></path><path fill="#333" style="fill:var(--color14, #333);stroke:var(--color14, #333)" stroke="#333" stroke-width=".457" d="M15.999 17.733a1 1 0 0 1-.507-.133L3.719 10.787c-.48-.28-.64-.893-.36-1.373s.893-.64 1.36-.36l11.267 6.52 11.2-6.48a.995.995 0 0 1 1.36.36c.28.48.107 1.093-.36 1.373L16.493 17.6a1.05 1.05 0 0 1-.493.133z"></path><path fill="#333" style="fill:var(--color14, #333);stroke:var(--color14, #333)" stroke="#333" stroke-width=".457" d="M16 29.813c-.547 0-1-.453-1-1V16.72c0-.547.453-1 1-1s1 .453 1 1v12.093c0 .547-.453 1-1 1z"></path><path fill="#333" style="fill:var(--color14, #333);stroke:var(--color14, #333)" stroke="#333" stroke-width=".457" d="M15.999 30.333c-1.173 0-2.347-.253-3.253-.773l-7.12-3.947c-1.933-1.067-3.453-3.64-3.453-5.853v-7.547c0-2.213 1.52-4.773 3.453-5.853l7.12-3.947c1.813-1.027 4.667-1.027 6.493 0l7.12 3.947c1.933 1.067 3.453 3.64 3.453 5.853v7.547c0 .133 0 .24-.027.373a.983.983 0 0 1-.653.747c-.333.12-.707.04-.987-.187-1.533-1.333-3.907-1.387-5.52-.093a4.296 4.296 0 0 0-1.627 3.373c0 .787.213 1.56.627 2.227.107.187.213.334.333.48a.987.987 0 0 1-.28 1.52l-2.44 1.347c-.907.533-2.067.787-3.24.787zm0-26.666c-.827 0-1.667.173-2.267.507l-7.12 3.947c-1.293.707-2.413 2.627-2.413 4.093v7.547c0 1.467 1.133 3.387 2.413 4.093l7.12 3.947c1.213.68 3.333.68 4.547 0l1.493-.826a6.229 6.229 0 0 1-.76-3c0-1.947.867-3.747 2.373-4.947 1.813-1.453 4.4-1.76 6.44-.893v-5.947c0-1.467-1.133-3.387-2.413-4.093l-7.12-3.947c-.627-.307-1.467-.48-2.293-.48z"></path><path fill="#388ce7" style="fill:var(--color23, #388ce7);stroke:var(--color23, #388ce7)" stroke="#388ce7" stroke-width=".457" d="M25.335 30.333c-2.16 0-4.2-1.12-5.347-2.96a6.258 6.258 0 0 1-.987-3.24 6.264 6.264 0 0 1 2.267-4.987 6.426 6.426 0 0 1 3.92-1.48c1.733-.013 3.293.587 4.52 1.76s1.92 2.747 1.947 4.44a6.207 6.207 0 0 1-.853 3.293c-.32.56-.733 1.08-1.227 1.52a6.168 6.168 0 0 1-4.12 1.654h-.12zm0-10.667h-.093a4.373 4.373 0 0 0-2.693 1.013 4.286 4.286 0 0 0-1.547 3.413c.013.787.253 1.56.667 2.213.813 1.307 2.227 2.107 3.747 2.027a4.286 4.286 0 0 0 2.814-1.134c.347-.306.627-.653.84-1.026.4-.694.6-1.467.587-2.253a4.293 4.293 0 0 0-1.333-3.04 4.237 4.237 0 0 0-2.987-1.213z"></path></symbol><use href="#KlS0soD7ZK-CQIrAsstDH"></use></svg>