<svg xmlns="http://www.w3.org/2000/svg" viewBox="0 0 32 32"><symbol xmlns="http://www.w3.org/2000/svg" id="a" viewBox="0 0 32 32"><path d="M23.331 22.667H11.178c-1.13 0-2.214-.509-2.978-1.394S7.047 19.2 7.139 18l.947-12.073c.034-.376-.091-.739-.331-1.018s-.571-.424-.924-.424H4.857c-.468 0-.856-.412-.856-.909s.388-.909.856-.909h1.986c.833 0 1.62.376 2.18 1.018.308.364.536.788.662 1.261h14.253a3.96 3.96 0 0 1 2.99 1.358 4.432 4.432 0 0 1 1.061 3.261l-.616 9.091c-.126 2.218-1.951 4.012-4.04 4.012zM9.74 6.752l-.89 11.394c-.057.703.16 1.37.605 1.891s1.061.8 1.723.8h12.153c1.187 0 2.259-1.067 2.351-2.327l.616-9.091c.046-.715-.171-1.394-.616-1.891a2.273 2.273 0 0 0-1.735-.788L9.74 6.752zm11.927 23.581c-1.467 0-2.667-1.2-2.667-2.667s1.2-2.667 2.667-2.667c1.467 0 2.667 1.2 2.667 2.667s-1.2 2.667-2.667 2.667zm0-3.333c-.373 0-.667.293-.667.667s.293.667.667.667c.373 0 .667-.293.667-.667S22.041 27 21.667 27zM11 30.333c-1.467 0-2.667-1.2-2.667-2.667s1.2-2.667 2.667-2.667c1.467 0 2.667 1.2 2.667 2.667s-1.2 2.667-2.667 2.667zM11 27c-.373 0-.667.293-.667.667s.293.667.667.667c.373 0 .667-.293.667-.667S11.374 27 11 27z"/><path d="M26.667 12.667H12.889c-.486 0-.889-.453-.889-1s.403-1 .889-1h13.778c.486 0 .889.453.889 1s-.403 1-.889 1z"/></symbol><use href="#a"/></svg>