<svg xmlns="http://www.w3.org/2000/svg" width="28" height="28" fill="none" viewBox="0 0 28 28"><path fill="#F9E3E7" d="M6.774 7.086c-3.353 1.433-4.56 9.16-4.762 13.159a.972.972 0 0 0 .103.486l.157.313a1 1 0 0 0 .73.54l2.09.348a1 1 0 0 0 .745-.173l3.1-2.213a1 1 0 0 1 .133-.081l2.719-1.36a.999.999 0 0 1 .447-.105h3.071c.128 0 .254.024.372.072l2.198.879a.998.998 0 0 1 .229.128l3.563 2.672a1 1 0 0 0 .741.19l2.334-.333a1 1 0 0 0 .85-.866l.387-3.09a1 1 0 0 0-.008-.303l-.947-5.208a1.001 1.001 0 0 0-.09-.269l-1.75-3.502a1 1 0 0 0-.579-.501l-2.378-.793a1 1 0 0 0-.468-.04l-6.109.94a1 1 0 0 1-.304 0l-6.11-.94a.85.85 0 0 0-.464.05Z"/><path fill="#E54F6D" fill-rule="evenodd" d="M19.16 7.335c-.66.1-1.433.268-2.224.46-1.987.48-4.044.45-6.017-.007-.31-.072-.598-.135-.861-.19-1.715-.359-3.381-.26-4.382.73-1.083 1.07-1.828 2.82-2.296 4.736a23.155 23.155 0 0 0-.63 5.225c0 .587.055 1.064.14 1.447.132.591.545.94 1.137 1.063.62.13 1.398-.007 2.047-.422.16-.102.32-.21.478-.323.319-.227.654-.48 1-.74.625-.47 1.283-.966 1.933-1.377 1.045-.662 2.213-1.213 3.564-1.321 1.234-.099 2.35.032 3.266.255 1.41.344 2.536 1.272 3.485 2.054l.077.063a18.759 18.759 0 0 0 2.069 1.505c.616.378 1.335.488 1.914.354.554-.13.958-.47 1.106-1.037a6.38 6.38 0 0 0 .195-1.521v-.022c.24-8.218-3.276-10.696-4.625-10.999l.164-.732-.164.732c-.223-.05-.684-.038-1.376.067Zm-.225-1.483c.692-.105 1.404-.165 1.929-.047 2.328.522 6.045 3.897 5.797 12.495 0 .503-.065 1.2-.244 1.888-.308 1.184-1.202 1.884-2.217 2.12-.992.23-2.113.032-3.04-.537a20.211 20.211 0 0 1-2.237-1.625c-1.023-.843-1.908-1.56-2.963-1.817a8.856 8.856 0 0 0-2.792-.218c-1.008.081-1.936.495-2.88 1.093-.61.386-1.168.808-1.752 1.248-.357.269-.722.545-1.114.824a13.09 13.09 0 0 1-.54.365c-.952.609-2.128.843-3.163.626-1.064-.223-2.01-.942-2.293-2.204a8.158 8.158 0 0 1-.176-1.774c0-1.475.177-3.55.673-5.58.49-2.011 1.32-4.085 2.698-5.448 1.569-1.552 3.92-1.512 5.743-1.132.275.058.573.123.894.197 1.764.41 3.583.431 5.326.01a28.882 28.882 0 0 1 2.351-.484Zm.744 4.446a.168.168 0 0 0-.173.163c0 .078.066.163.173.163a.169.169 0 0 0 .174-.163.169.169 0 0 0-.174-.163Zm0 1.4c.678 0 1.227-.554 1.227-1.237s-.55-1.237-1.227-1.237-1.226.554-1.226 1.237.55 1.237 1.226 1.237Zm-.173 3.71c0-.078.066-.162.173-.162.108 0 .174.084.174.163a.169.169 0 0 1-.174.163.168.168 0 0 1-.173-.163Zm1.4 0c0 .684-.55 1.238-1.227 1.238a1.232 1.232 0 0 1-1.226-1.237c0-.684.55-1.237 1.226-1.237.678 0 1.227.553 1.227 1.237Zm1.225-2.636a.169.169 0 0 0-.174.163c0 .078.066.162.174.162a.169.169 0 0 0 .173-.162.169.169 0 0 0-.173-.163Zm0 1.4c.677 0 1.226-.554 1.226-1.237 0-.684-.55-1.238-1.226-1.238-.678 0-1.227.554-1.227 1.238 0 .683.55 1.237 1.227 1.237Zm-5.079-1.237c0-.079.067-.163.174-.163.108 0 .174.084.174.163a.169.169 0 0 1-.174.162.169.169 0 0 1-.174-.162Zm1.4 0c0 .683-.549 1.237-1.226 1.237A1.232 1.232 0 0 1 16 12.935c0-.684.549-1.238 1.226-1.238.677 0 1.226.554 1.226 1.238ZM8.75 11.25a.5.5 0 1 0 0-1 .5.5 0 0 0 0 1Zm-4 1.5a2 2 0 0 1 2-2 2 2 0 0 1 4 0 2 2 0 0 1 0 4 2 2 0 1 1-4 0 2 2 0 0 1-2-2Zm6.5 0a.5.5 0 1 1-1 0 .5.5 0 0 1 1 0Zm-4.5.5a.5.5 0 1 0 0-1 .5.5 0 0 0 0 1Zm2.5 1.5a.5.5 0 1 1-1 0 .5.5 0 0 1 1 0Z" clip-rule="evenodd"/><path fill="#F8F8F8" fill-rule="evenodd" d="M8.77 10.315a.752.752 0 0 0-.757.747L8.006 12l-1.005-.003a.749.749 0 0 0-.004 1.497l1 .003-.008 1.06a.752.752 0 0 0 1.503.01l.008-1.066 1 .003a.748.748 0 0 0 .004-1.497l-.994-.003.007-.932a.752.752 0 0 0-.747-.757Z" clip-rule="evenodd"/></svg>