<svg xmlns="http://www.w3.org/2000/svg" viewBox="0 0 32 32"><symbol xmlns="http://www.w3.org/2000/svg" id="a" viewBox="0 0 32 32"><path d="M24.176 10.45h-.075c-4.939-.495-9.869-.682-14.752-.187l-1.905.187a.705.705 0 0 1-.149-1.401L9.2 8.862c4.967-.504 9.999-.308 15.041.187a.7.7 0 0 1 .625.766.692.692 0 0 1-.691.635z"/><path d="M12.507 9.507c-.037 0-.075 0-.121-.009a.704.704 0 0 1-.57-.803l.205-1.223c.149-.896.355-2.138 2.53-2.138h2.446c2.185 0 2.39 1.288 2.53 2.147l.205 1.214a.693.693 0 0 1-.569.803.693.693 0 0 1-.803-.57l-.205-1.214c-.131-.812-.159-.971-1.148-.971h-2.446c-.99 0-1.008.131-1.148.962l-.215 1.214a.701.701 0 0 1-.691.588zm6.264 15.9h-5.994c-3.258 0-3.389-1.802-3.492-3.258l-.607-9.402A.707.707 0 0 1 9.332 12a.708.708 0 0 1 .747.654l.607 9.402c.103 1.419.14 1.951 2.091 1.951h5.994c1.961 0 1.998-.532 2.091-1.951l.607-9.402a.714.714 0 0 1 .747-.654.7.7 0 0 1 .653.747l-.607 9.402c-.103 1.457-.233 3.258-3.492 3.258z"/><path d="m13.456 20.068-.186-5.996c-.02-.382.281-.716.663-.735s.716.281.735.663l.186 5.996c.02.382-.281.716-.663.736s-.716-.281-.735-.663zm3.103-.125L16.666 14c.012-.383.34-.69.722-.677s.69.34.678.722l-.107 5.943c-.012.383-.34.69-.722.677s-.69-.34-.677-.722z"/></symbol><use href="#a"/></svg>