<svg xmlns="http://www.w3.org/2000/svg" viewBox="0 0 32 32"><symbol xmlns="http://www.w3.org/2000/svg" id="a" viewBox="0 0 32 32"><path d="M26.083 8.806h-.09c-5.927-.594-11.842-.818-17.702-.224l-2.286.224c-.471.045-.885-.291-.93-.762s.291-.874.751-.919l2.286-.224c5.96-.605 11.999-.37 18.049.224a.842.842 0 0 1 .751.919.83.83 0 0 1-.829.762z"/><path d="M12.08 7.675c-.045 0-.09 0-.146-.011a.843.843 0 0 1-.683-.964l.246-1.468c.179-1.076.426-2.566 3.036-2.566h2.935c2.622 0 2.868 1.546 3.036 2.577l.247 1.456a.833.833 0 0 1-.683.964.833.833 0 0 1-.964-.683l-.247-1.456c-.157-.975-.19-1.165-1.378-1.165h-2.935c-1.188 0-1.21.157-1.378 1.154l-.258 1.457a.84.84 0 0 1-.829.706zm7.517 19.08h-7.193c-3.91 0-4.067-2.162-4.19-3.91l-.728-11.282a.847.847 0 0 1 .784-.896.848.848 0 0 1 .896.784l.728 11.282c.123 1.703.168 2.342 2.51 2.342h7.193c2.353 0 2.398-.639 2.51-2.342l.728-11.282a.856.856 0 0 1 .896-.784.841.841 0 0 1 .784.896l-.728 11.282c-.123 1.748-.28 3.91-4.19 3.91z"/><path d="M18.801 13.03h-5.602c-.459 0-.84-.381-.84-.84s.381-.84.84-.84h5.602c.459 0 .84.381.84.84s-.381.84-.84.84z"/></symbol><use href="#a"/></svg>