<svg xmlns="http://www.w3.org/2000/svg" viewBox="0 0 32 32"><symbol xmlns="http://www.w3.org/2000/svg" id="YbWZfsp8x7ZusuxU5bnSP" viewBox="0 0 32 32"><path fill="#333" style="fill:var(--color14, #333)" d="M16.012 30.333c-.84 0-1.68-.28-2.333-.84l-2.107-1.813c-.213-.187-.747-.373-1.027-.373H8.238a3.573 3.573 0 0 1-3.573-3.573v-2.28c0-.28-.187-.8-.373-1.013l-1.8-2.12c-1.093-1.293-1.093-3.333 0-4.627l1.8-2.12c.187-.213.373-.733.373-1.013v-2.28c0-1.973 1.6-3.573 3.573-3.573h2.307c.28 0 .813-.2 1.027-.373l2.107-1.813c1.307-1.12 3.347-1.12 4.653 0l2.107 1.813c.213.187.747.373 1.027.373h2.267c1.973 0 3.573 1.6 3.573 3.573v2.267c0 .28.2.813.387 1.027l1.8 2.107c1.12 1.307 1.12 3.347 0 4.653l-1.8 2.107c-.187.213-.373.747-.373 1.027v2.267c0 1.973-1.6 3.573-3.573 3.573H21.48c-.28 0-.813.2-1.027.373l-2.107 1.813c-.667.56-1.507.84-2.333.84zM8.239 6.693c-.867 0-1.573.707-1.573 1.573v2.28c0 .76-.36 1.733-.84 2.307l-1.8 2.12c-.467.547-.467 1.493 0 2.04l1.8 2.12c.493.587.853 1.56.853 2.307v2.28c0 .867.707 1.573 1.573 1.573h2.307c.773 0 1.747.36 2.333.867l2.107 1.813c.547.467 1.507.467 2.053 0l2.107-1.813c.587-.493 1.56-.867 2.333-.867h2.267c.867 0 1.573-.707 1.573-1.573v-2.267c0-.773.36-1.747.867-2.333l1.8-2.107c.467-.547.467-1.507 0-2.053l-1.8-2.107c-.493-.587-.867-1.56-.867-2.333V8.253c0-.867-.707-1.573-1.573-1.573h-2.267c-.76 0-1.747-.36-2.333-.867L17.052 4c-.547-.467-1.507-.467-2.053 0l-2.107 1.813c-.587.493-1.56.867-2.333.867h-2.32v.013z"></path><path fill="#388ce7" style="fill:var(--color23, #388ce7)" d="M14.999 20a.949.949 0 0 1-.707-.32l-2.001-2.183c-.387-.422-.387-1.12 0-1.542s1.027-.422 1.414 0l1.294 1.412 4.63-5.05c.387-.422 1.027-.422 1.414 0s.387 1.12 0 1.543l-5.337 5.821a.95.95 0 0 1-.707.32z"></path></symbol><use href="#YbWZfsp8x7ZusuxU5bnSP"></use></svg>