<svg xmlns="http://www.w3.org/2000/svg" width="28" height="28" fill="none" viewBox="0 0 28 28"><rect width="22" height="8" x="3" y="6" fill="#fff" rx="3"/><rect width="22" height="8" x="3.5" y="5.485" fill="#fff" rx="3"/><path fill="#F0E8F8" d="M3.5 15.485a2 2 0 0 1 2-2h18a2 2 0 0 1 2 2V20a2 2 0 0 1-2 2h-18a2 2 0 0 1-2-2v-4.515Z"/><circle cx="11" cy="11.485" r="2" fill="#F9E3E7"/><circle cx="18.5" cy="11.485" r="2" fill="#F9E3E7"/><circle cx="7.5" cy="10.985" r="2.5" fill="#F9E3E7"/><circle cx="22" cy="10.985" r="2.5" fill="#F9E3E7"/><path fill="#E54F6D" fill-rule="evenodd" d="M6.875 13.268c-.282 0-.482.04-.695.081-.286.056-.593.117-1.15.091-.31-.284-.53-.791-.53-1.237V9.829c0-.396.18-.863.44-1.137.932-.984 1.894-1.197 2.535-1.207h.03a2.983 2.983 0 0 1 2.223 1h1.475c1.27 0 2.297 1.114 2.297 2.49 0 .674-.243 1.3-.685 1.768-.414.479-.99.742-1.612.742h-1.52c-.258.177-.537.114-.863.041-.244-.055-.514-.116-.82-.086-.05.006-.354-.047-.635-.095a7.043 7.043 0 0 0-.49-.077Zm1.647-.706c-.241.229-.543.37-.877.401-.53.061-1.092-.172-1.602-.628a.394.394 0 0 1-.05-.122V9.849c0-.03.02-.101.02-.101.45-.477.951-.731 1.462-.741h.02c.386 0 .753.15 1.03.415a.78.78 0 0 0 .11.245c.172.254.27.566.27.879v.879c0 .322-.098.634-.27.879a.78.78 0 0 0-.113.258Zm1.924-.542h.757a.891.891 0 0 0 .658-.293 1.03 1.03 0 0 0 .288-.732c0-.566-.424-1.025-.946-1.025h-.753c.033.183.05.37.05.559v.913c0 .194-.018.388-.054.578ZM21 13.485h.5c.661 0 1.5 0 2.47-.046.31-.275.53-.783.53-1.23V9.832c0-.396-.18-.864-.44-1.138-.932-.985-1.894-1.199-2.535-1.209h-.03a2.999 2.999 0 0 0-2.222 1h-1.476c-1.27 0-2.297 1.118-2.297 2.5 0 .677.243 1.304.667 1.755.432.48 1.008.745 1.63.745h1.509c.267.197.555.14.892.072.239-.048.503-.101.802-.072Zm-2.446-3.53a3.12 3.12 0 0 0-.054.578v.915c0 .19.018.38.052.567h-.755a.879.879 0 0 1-.676-.314 1.056 1.056 0 0 1-.27-.716c0-.569.424-1.03.946-1.03h.757Zm1.91 2.57c.245.244.556.395.9.436.532.061 1.093-.172 1.633-.65l.03-.102V9.842a.5.5 0 0 0-.04-.112c-.43-.457-.931-.71-1.442-.71-.02-.021-.02-.021-.03-.021-.39 0-.77.154-1.04.424a.783.783 0 0 1-.11.248c-.172.246-.27.56-.27.883v.882c0 .324.098.628.27.883a.782.782 0 0 1 .099.206Z" clip-rule="evenodd"/><path fill="#AF89D0" fill-rule="evenodd" d="M4.5 11.57V9.947a3.5 3.5 0 0 1 3.51-3.5l13 .038a3.5 3.5 0 0 1 3.49 3.5v1.642a.5.5 0 0 1-.297.457 2.023 2.023 0 0 0-.29-.008l-9.23.401-.179.007-9.526-.414a.5.5 0 0 1-.478-.5Zm-1.06 1.252A1.993 1.993 0 0 1 3 11.57V9.947a5 5 0 0 1 5.015-5l13 .038a5 5 0 0 1 4.985 5v1.642c0 .46-.156.885-.418 1.223.262.338.418.762.418 1.224V18.5a5 5 0 0 1-5 5H8a5 5 0 0 1-5-5v-4.426c0-.475.165-.91.44-1.252Zm11.304 1.154-.179.008-.065.003-.065-.003-9.413-.41a.5.5 0 0 0-.522.5V18.5A3.5 3.5 0 0 0 8 22h13a3.5 3.5 0 0 0 3.5-3.5v-4.426a.5.5 0 0 0-.297-.457 2.062 2.062 0 0 1-.128.009l-9.331.35Z" clip-rule="evenodd"/></svg>