<svg xmlns="http://www.w3.org/2000/svg" viewBox="0 0 32 32"><symbol xmlns="http://www.w3.org/2000/svg" id="a" viewBox="0 0 32 32"><path d="M13.013 2.306h.173c5.92 0 8.773 2.333 9.267 7.56a1.002 1.002 0 0 1-.907 1.093 1.02 1.02 0 0 1-1.093-.907c-.387-4.187-2.36-5.747-7.28-5.747H13c-5.427 0-7.347 1.92-7.347 7.347v8.693c0 5.427 1.92 7.347 7.347 7.347h.173c4.947 0 6.92-1.587 7.28-5.853.067-.547.533-.96 1.093-.907.56.04.96.533.92 1.08-.453 5.307-3.32 7.68-9.28 7.68h-.173c-6.547 0-9.347-2.8-9.347-9.347v-8.693c0-6.547 2.8-9.347 9.347-9.347z"/><path d="M28.333 16.997H13.16c-.547 0-1-.453-1-1s.453-1 1-1h15.173c.547 0 1 .453 1 1s-.453 1-1 1z"/><path d="M16.134 21.464a.99.99 0 0 1-.707-.293l-4.467-4.467a1.005 1.005 0 0 1 0-1.413l4.467-4.467c.387-.387 1.027-.387 1.413 0s.387 1.027 0 1.413l-3.76 3.76 3.76 3.76a1.005 1.005 0 0 1 0 1.413.967.967 0 0 1-.707.293z"/></symbol><use href="#a"/></svg>