<svg xmlns="http://www.w3.org/2000/svg" viewBox="0 0 32 32"><symbol xmlns="http://www.w3.org/2000/svg" id="a" viewBox="0 0 32 32"><path fill="#ff334b" d="M16 28.944c-7.248 0-13.139-5.891-13.139-13.139S8.752 2.666 16 2.666c7.248 0 13.139 5.891 13.139 13.139S23.248 28.944 16 28.944zM16 4.5C9.767 4.5 4.694 9.572 4.694 15.806S9.766 27.112 16 27.112c6.233 0 11.306-5.072 11.306-11.306S22.234 4.5 16 4.5z" style="fill:var(--color24, #ff334b)"/><path fill="#ff334b" stroke="#ff334b" stroke-width=".711" d="m19.999 16.301-8.029-.014c-.376-.001-.688-.334-.687-.735s.313-.733.69-.732l8.029.014c.376.001.688.334.687.735s-.304.733-.689.732z" style="fill:var(--color24, #ff334b);stroke:var(--color24, #ff334b)"/></symbol><use href="#a"/></svg>