<svg xmlns="http://www.w3.org/2000/svg" width="28" height="28" fill="none" viewBox="0 0 28 28"><circle cx="13.5" cy="19.5" r="1.5" fill="#fff"/><path fill="#DDF3FF" d="M5.709 6.25a3 3 0 0 1 3-3h10a3 3 0 0 1 3 3v15a3 3 0 0 1-3 3h-10a3 3 0 0 1-3-3v-15Z"/><path fill="#4894DD" d="M16.908 25.125H10.99c-4.594 0-5.99-1.396-5.99-5.99V7.99C5 3.396 6.396 2 10.99 2h5.918c4.594 0 5.99 1.396 5.99 5.99v11.145c0 4.594-1.396 5.99-5.99 5.99ZM10.99 3.563c-3.73 0-4.427.708-4.427 4.427v11.145c0 3.72.697 4.427 4.427 4.427h5.918c3.73 0 4.427-.708 4.427-4.427V7.99c0-3.72-.698-4.427-4.427-4.427H10.99Z"/><path fill="#4894DD" d="M16.032 7.209h-4.167a.787.787 0 0 1-.781-.782c0-.427.354-.781.781-.781h4.167c.427 0 .781.354.781.781a.787.787 0 0 1-.781.782Z"/><circle cx="14" cy="19" r="1" fill="#F8F8F8"/><path fill="#4894DD" d="M13.95 21.385a2.396 2.396 0 1 1 0-4.792 2.396 2.396 0 0 1 0 4.792Zm0-3.24a.836.836 0 0 0-.834.834c0 .459.375.834.834.834a.836.836 0 0 0 .833-.834.836.836 0 0 0-.833-.833Z"/></svg>