<svg xmlns="http://www.w3.org/2000/svg" viewBox="0 0 32 32"><symbol xmlns="http://www.w3.org/2000/svg" id="a" viewBox="0 0 32 32"><path fill="#20b383" d="M16 28.944c-7.248 0-13.139-5.891-13.139-13.139S8.752 2.666 16 2.666c7.248 0 13.139 5.891 13.139 13.139S23.248 28.944 16 28.944zM16 4.5C9.767 4.5 4.694 9.572 4.694 15.806S9.766 27.112 16 27.112c6.233 0 11.306-5.072 11.306-11.306S22.234 4.5 16 4.5z" style="fill:var(--color20, #20b383)"/><path fill="#20b383" stroke="#20b383" stroke-width=".711" d="M15.234 20.444v-8.792c0-.379.348-.694.768-.694s.768.315.768.694v8.792c0 .379-.348.694-.768.694s-.768-.305-.768-.694z" style="fill:var(--color20, #20b383);stroke:var(--color20, #20b383)"/><path fill="#20b383" stroke="#20b383" stroke-width=".711" d="M20.396 16.766h-8.838c-.381 0-.697-.348-.697-.768s.316-.768.697-.768h8.838c.381 0 .697.348.697.768s-.307.768-.697.768z" style="fill:var(--color20, #20b383);stroke:var(--color20, #20b383)"/></symbol><use href="#a"/></svg>