<svg xmlns="http://www.w3.org/2000/svg" viewBox="0 0 32 32"><symbol xmlns="http://www.w3.org/2000/svg" id="a" viewBox="0 0 32 32"><path d="M20 4a.8.8 0 0 0-.8.8v8.8a.8.8 0 0 0 .8.8h7.2a.8.8 0 0 0 .8-.8V4.8a.8.8 0 0 0-.8-.8H20zm-3.2.8A3.2 3.2 0 0 1 20 1.6h7.2a3.2 3.2 0 0 1 3.2 3.2v8.8a3.2 3.2 0 0 1-3.2 3.2H20a3.2 3.2 0 0 1-3.2-3.2V4.8zM12 18.4a.8.8 0 0 1 .8.8V28a.8.8 0 0 1-.8.8H4.8A.8.8 0 0 1 4 28v-8.8a.8.8 0 0 1 .8-.8H12zM4.8 16a3.2 3.2 0 0 0-3.2 3.2V28a3.2 3.2 0 0 0 3.2 3.2H12a3.2 3.2 0 0 0 3.2-3.2v-8.8A3.2 3.2 0 0 0 12 16H4.8zm0-12a.8.8 0 0 0-.8.8v6.4a.8.8 0 0 0 .8.8H12a.8.8 0 0 0 .8-.8V4.8A.8.8 0 0 0 12 4H4.8zm-3.2.8a3.2 3.2 0 0 1 3.2-3.2H12a3.2 3.2 0 0 1 3.2 3.2v6.4a3.2 3.2 0 0 1-3.2 3.2H4.8a3.2 3.2 0 0 1-3.2-3.2V4.8zm26.894 23.597A6.4 6.4 0 0 0 23.2 18.4a6.4 6.4 0 0 0-6.4 6.4 6.4 6.4 0 0 0 9.997 5.294l1.072 1.073a1.2 1.2 0 1 0 1.697-1.697l-1.073-1.073zM27.2 24.8a4 4 0 1 1-8 0 4 4 0 0 1 8 0z"/></symbol><use href="#a"/></svg>