<svg xmlns="http://www.w3.org/2000/svg" viewBox="0 0 32 32"><symbol xmlns="http://www.w3.org/2000/svg" id="a" viewBox="0 0 32 32"><path fill="#9c9d9e" d="M19.333 30.333h-6.667c-.547 0-1-.453-1-1V26c0-2.8 1.533-4.333 4.333-4.333S20.332 23.2 20.332 26v3.333c0 .547-.453 1-1 1zm-5.666-2h4.667V26c0-1.68-.653-2.333-2.333-2.333s-2.333.653-2.333 2.333v2.333z" style="fill:var(--color2, #9c9d9e)"/><path fill="#9c9d9e" d="M19.6 30.333h-7.2c-6.587 0-9.387-2.813-9.387-9.387v-5.987c0-.547.453-1 1-1s1 .453 1 1v5.987c0 5.453 1.933 7.387 7.387 7.387h7.187c5.453 0 7.387-1.933 7.387-7.387v-5.987c0-.547.453-1 1-1s1 .453 1 1v5.987c.013 6.573-2.8 9.387-9.373 9.387z" style="fill:var(--color2, #9c9d9e)"/><path fill="#9c9d9e" d="M15.999 17c-1.467 0-2.8-.573-3.747-1.627s-1.387-2.427-1.24-3.893l.893-8.907a1.01 1.01 0 0 1 1-.907h6.227a1 1 0 0 1 1 .907l.893 8.907c.147 1.467-.293 2.84-1.24 3.893-.987 1.053-2.32 1.627-3.787 1.627zm-2.2-13.333-.8 8.013c-.093.893.173 1.733.733 2.347 1.133 1.253 3.4 1.253 4.533 0a3.01 3.01 0 0 0 .733-2.347l-.8-8.013h-4.4z" style="fill:var(--color2, #9c9d9e)"/><path fill="#9c9d9e" d="M24.413 17c-2.707 0-5.12-2.187-5.4-4.88l-.933-9.347c-.027-.28.067-.56.253-.773s.453-.333.747-.333h4.067c3.92 0 5.747 1.64 6.293 5.667l.373 3.707c.16 1.573-.32 3.067-1.347 4.2s-2.467 1.76-4.053 1.76zM20.187 3.667l.827 8.253c.173 1.667 1.72 3.08 3.4 3.08 1.013 0 1.92-.387 2.573-1.093.64-.707.933-1.653.84-2.667l-.373-3.667c-.413-3.013-1.387-3.907-4.307-3.907h-2.96zM7.519 17c-1.587 0-3.027-.627-4.053-1.76s-1.507-2.627-1.347-4.2l.36-3.667c.56-4.067 2.387-5.707 6.307-5.707h4.067c.28 0 .547.12.747.333s.28.493.253.773l-.933 9.347c-.28 2.693-2.693 4.88-5.4 4.88zM8.785 3.667c-2.92 0-3.893.88-4.32 3.933l-.36 3.64c-.107 1.013.2 1.96.84 2.667S6.492 15 7.518 15c1.68 0 3.24-1.413 3.4-3.08l.827-8.253h-2.96z" style="fill:var(--color2, #9c9d9e)"/></symbol><use href="#a"/></svg>