<svg xmlns="http://www.w3.org/2000/svg" width="28" height="28" fill="none" viewBox="0 0 28 28"><circle cx="14" cy="14" r="7" fill="#D7F8F3"/><path fill="#73C2B8" fill-rule="evenodd" d="M12.315 5.71A8.457 8.457 0 0 1 14 5.542a8.42 8.42 0 0 1 3.407.711l-.198-.945c-.455-1.726-1.354-2.1-2.567-2.1H13.37c-1.225 0-2.135.362-2.578 2.159l-.186.885a8.39 8.39 0 0 1 1.71-.542ZM8.581 7.508l.508-2.526c.595-2.392 1.995-3.524 4.281-3.524h1.272c2.275 0 3.675 1.132 4.27 3.454l.544 2.628A8.442 8.442 0 0 1 22.458 14a8.427 8.427 0 0 1-2.987 6.454l-.537 2.6c-.618 2.356-2.018 3.488-4.293 3.488H13.37c-2.287 0-3.687-1.132-4.282-3.477l-.52-2.57A8.444 8.444 0 0 1 5.542 14a8.443 8.443 0 0 1 3.04-6.492Zm1.958.747A6.712 6.712 0 0 0 7.292 14c0 2.065.921 3.978 2.543 5.262l.026.016a.303.303 0 0 1 .056.042c2.368 1.832 5.845 1.82 8.201-.023a.353.353 0 0 1 .082-.059A6.67 6.67 0 0 0 20.708 14a6.716 6.716 0 0 0-3.563-5.924c-2.05-1.072-4.612-1.014-6.606.18ZM14 22.458a8.4 8.4 0 0 1-3.394-.704l.185.926c.444 1.75 1.354 2.112 2.579 2.112h1.271c1.213 0 2.124-.362 2.579-2.135l.186-.91a8.409 8.409 0 0 1-3.406.711Z" clip-rule="evenodd"/><path fill="#73C2B8" fill-rule="evenodd" d="M12.654 15.647a.341.341 0 0 1-.057-.044l-.055-.053a9.46 9.46 0 0 1-.985-1.143 5.939 5.939 0 0 1-.654-1.137 2.863 2.863 0 0 1-.236-1.09c0-.227.04-.443.12-.643.08-.204.206-.39.383-.557.213-.21.447-.313.693-.313.094 0 .187.02.27.06.087.04.164.1.224.186l.773 1.09c.06.084.103.16.133.234.03.07.047.14.047.203 0 .08-.023.16-.07.237a1.134 1.134 0 0 1-.187.236l-.253.264a.178.178 0 0 0-.053.133c0 .027.003.05.01.077l.013.033.013.033c.06.11.164.254.31.427a11.401 11.401 0 0 0 .535.577 2.746 2.746 0 0 1 .067.065c.051.041.15.122.26.214.238.197.537.444.582.467l.03.013a.23.23 0 0 0 .113.027c.056 0 .1-.02.136-.057l.254-.25c.083-.083.163-.146.24-.186a.443.443 0 0 1 .236-.07c.064 0 .13.013.204.043.073.03.15.073.233.13l1.104.783a.51.51 0 0 1 .183.214.684.684 0 0 1 .053.26.847.847 0 0 1-.083.363 1.502 1.502 0 0 1-.773.733l-.006.002-.005.002c-.196.08-.41.123-.64.123-.34 0-.703-.08-1.086-.243a5.86 5.86 0 0 1-1.147-.66 15.465 15.465 0 0 1-.93-.783Z" clip-rule="evenodd"/></svg>